<svg width="26" height="33" viewBox="0 0 26 33" fill="none" xmlns="http://www.w3.org/2000/svg">
<path d="M1.69995 30.7113H20.5124V26.9936H24.23V1.6854H1.69995V30.7113ZM1.69995 32.1983C1.29101 32.1983 0.940931 32.0527 0.649715 31.7615C0.358499 31.4703 0.212891 31.1202 0.212891 30.7113L0.212891 1.6854C0.212891 1.27645 0.358499 0.926374 0.649715 0.635158C0.940931 0.343942 1.29101 0.198334 1.69995 0.198334H24.23C24.639 0.198334 24.9891 0.343942 25.2803 0.635158C25.5715 0.926374 25.7171 1.27645 25.7171 1.6854V27.7371L21.2559 32.1983H1.69995Z" fill="#35005E"/>
<path d="M4.6958 21.0162V10.3522H8.27734C9.71289 10.3522 10.9116 10.7916 11.8735 11.6705C12.8354 12.5494 13.3164 13.775 13.3164 15.3473V16.0138C13.3164 17.5909 12.8354 18.819 11.8735 19.6979C10.9116 20.5768 9.71289 21.0162 8.27734 21.0162H4.6958ZM6.93701 19.339H8.24072C9.0708 19.339 9.73975 19.0631 10.2476 18.5114C10.7603 17.9596 11.0166 17.1442 11.0166 16.0651V15.3033C11.0166 14.2242 10.7603 13.4113 10.2476 12.8644C9.73975 12.3126 9.0708 12.0367 8.24072 12.0367H6.93701V19.339ZM15.1694 21.0162V10.3522H17.4253V19.3024H22.0835V21.0162H15.1694Z" fill="#35005E"/>
</svg>
