<svg width="36" height="32" viewBox="0 0 36 32" fill="none" xmlns="http://www.w3.org/2000/svg">
<g clip-path="url(#clip0_467_357)">
<rect width="35.93" height="32" fill="white"/>
<path d="M6.69995 30.5129H25.5124V26.7953H29.23V1.48706H6.69995V30.5129ZM6.69995 32C6.29101 32 5.94093 31.8544 5.64972 31.5632C5.3585 31.272 5.21289 30.9219 5.21289 30.5129L5.21289 1.48706C5.21289 1.07812 5.3585 0.728041 5.64972 0.436824C5.94093 0.145608 6.29101 0 6.69995 0H29.23C29.639 0 29.9891 0.145608 30.2803 0.436824C30.5715 0.728041 30.7171 1.07812 30.7171 1.48706V27.5388L26.2559 32H6.69995Z" fill="#CEB0E5"/>
<path d="M9.6958 20.8179V10.1538H13.2773C14.7129 10.1538 15.9116 10.5933 16.8735 11.4722C17.8354 12.3511 18.3164 13.5767 18.3164 15.149V15.8155C18.3164 17.3926 17.8354 18.6206 16.8735 19.4995C15.9116 20.3784 14.7129 20.8179 13.2773 20.8179H9.6958ZM11.937 19.1407H13.2407C14.0708 19.1407 14.7397 18.8648 15.2476 18.313C15.7603 17.7613 16.0166 16.9458 16.0166 15.8667V15.105C16.0166 14.0259 15.7603 13.2129 15.2476 12.666C14.7397 12.1143 14.0708 11.8384 13.2407 11.8384H11.937V19.1407ZM20.1694 20.8179V10.1538H22.4253V19.104H27.0835V20.8179H20.1694Z" fill="#CEB0E5"/>
</g>
<defs>
<clipPath id="clip0_467_357">
<rect width="35.93" height="32" fill="white"/>
</clipPath>
</defs>
</svg>
